<svg xmlns="http://www.w3.org/2000/svg" width="21.018" height="16.094" viewBox="0 0 21.018 16.094">
  <path id="sign-in-alt-solid" d="M17.077,79.764H13.629a.494.494,0,0,1-.493-.493V77.629a.494.494,0,0,1,.493-.493h3.448a1.312,1.312,0,0,0,1.314-1.314V67.941a1.312,1.312,0,0,0-1.314-1.314H13.629a.494.494,0,0,1-.493-.493V64.493A.494.494,0,0,1,13.629,64h3.448a3.942,3.942,0,0,1,3.941,3.941v7.882A3.942,3.942,0,0,1,17.077,79.764Zm-1.929-8.251-6.9-6.9a.987.987,0,0,0-1.683.7v3.941H.985A.983.983,0,0,0,0,70.24v3.941a.983.983,0,0,0,.985.985H6.568v3.941a.987.987,0,0,0,1.683.7l6.9-6.9A.994.994,0,0,0,15.148,71.512Z" transform="translate(0 -64)" fill="#fff"/>
</svg>
