<svg xmlns="http://www.w3.org/2000/svg" width="28.327" height="21.69" viewBox="0 0 28.327 21.69"><path d="M23.015,85.245H18.368a.666.666,0,0,1-.664-.664V82.368a.666.666,0,0,1,.664-.664h4.647a1.769,1.769,0,0,0,1.77-1.77V69.311a1.769,1.769,0,0,0-1.77-1.77H18.368a.666.666,0,0,1-.664-.664V64.664A.666.666,0,0,1,18.368,64h4.647a5.313,5.313,0,0,1,5.311,5.311V79.934A5.313,5.313,0,0,1,23.015,85.245Zm-2.6-11.12L11.12,64.83a1.33,1.33,0,0,0-2.268.941v5.311H1.328A1.325,1.325,0,0,0,0,72.409v5.311a1.325,1.325,0,0,0,1.328,1.328H8.852V84.36a1.33,1.33,0,0,0,2.268.941l9.295-9.295A1.339,1.339,0,0,0,20.415,74.125Z" transform="translate(0 -64)" fill="#fff"/></svg>